<svg xmlns="http://www.w3.org/2000/svg" xmlns:xlink="http://www.w3.org/1999/xlink" fill="none" version="1.1" width="480" height="300" viewBox="0 0 480 300"><defs><clipPath id="master_svg0_85_9990"><rect x="0" y="0" width="480" height="300" rx="0"/></clipPath><filter id="master_svg1_85_9993" filterUnits="objectBoundingBox" color-interpolation-filters="sRGB" x="-44" y="-33" width="389.0791015625" height="280.3214569091797"><feFlood flood-opacity="0" result="BackgroundImageFix"/><feColorMatrix in="SourceAlpha" type="matrix" values="0 0 0 0 0 0 0 0 0 0 0 0 0 0 0 0 0 0 127 0"/><feOffset dy="11" dx="0"/><feGaussianBlur stdDeviation="11"/><feColorMatrix type="matrix" values="0 0 0 0 0.3960784375667572 0 0 0 0 0.47843137383461 0 0 0 0 0.5764706134796143 0 0 0 0.27000001072883606 0"/><feBlend mode="normal" in2="BackgroundImageFix" result="effect1_dropShadow"/><feBlend mode="normal" in="SourceGraphic" in2="effect1_dropShadow" result="shape"/></filter><linearGradient x1="0.4996841251850128" y1="-0.02316455729305744" x2="0.4996841251850128" y2="1.0107594728469849" id="master_svg2_78_05430"><stop offset="0%" stop-color="#FDFEFF" stop-opacity="1"/><stop offset="99.6399998664856%" stop-color="#ECF0F5" stop-opacity="1"/></linearGradient><linearGradient x1="-0.05320574343204498" y1="-0.10769230872392654" x2="0.3900239169597626" y2="0.3793269097805023" id="master_svg3_78_05437"><stop offset="0%" stop-color="#BCCBE1" stop-opacity="1"/><stop offset="99.41999912261963%" stop-color="#FFFFFF" stop-opacity="0"/></linearGradient><linearGradient x1="-0.04682795703411102" y1="0.27048516273498535" x2="0.34567204117774963" y2="0.4245283007621765" id="master_svg4_78_05441"><stop offset="0%" stop-color="#E2E8F0" stop-opacity="1"/><stop offset="99.41999912261963%" stop-color="#FFFFFF" stop-opacity="0"/></linearGradient></defs><g clip-path="url(#master_svg0_85_9990)"><g><g><path d="M238.95534356689453,279.705C316.24134356689456,279.705,379.21534356689455,216.999,379.21534356689455,139.983C378.95534356689456,62.706,316.24134356689456,0,238.95534356689453,0C161.40834356689453,0,98.69434356689453,62.706,98.69434356689453,139.722C98.69434356689453,216.999,161.40834356689453,279.705,238.95534356689453,279.705Z" fill="#EAEEF9" fill-opacity="1"/></g><g filter="url(#master_svg1_85_9993)"><path d="M388.5837149658203,157.676234375C388.5837149658203,187.598234375,364.3827149658203,211.796234375,334.1967149658203,211.796234375C333.67671496582034,211.796234375,329.2527149658203,211.796234375,296.72471496582034,211.796234375C274.08571496582033,211.796234375,237.9137149658203,211.796234375,180.14441496582032,211.796234375L152.5607149658203,211.796234375C116.38961496582031,212.577234375,87.50471496582031,183.695234375,87.50471496582031,148.830234375C87.50471496582031,113.704334375,116.64981496582031,84.562934375,153.34141496582032,86.384234375C184.82851496582032,-11.967865625000002,328.9927149658203,1.8222343750000007,341.2227149658203,103.556834375C368.2867149658203,106.939334375,388.5837149658203,129.836234375,388.5837149658203,157.676234375Z" fill="url(#master_svg2_78_05430)" fill-opacity="1"/></g><g><path d="M334.1970111816406,211.795640625C364.1228111816406,211.795640625,388.5842111816406,187.59824062500002,388.5842111816406,157.676340625C388.5842111816406,127.754340625,364.1228111816406,103.556640625,334.1970111816406,103.556640625C304.2713111816406,103.556640625,279.8102111816406,127.754340625,279.8102111816406,157.676340625C279.8102111816406,187.59824062500002,304.2713111816406,211.795640625,334.1970111816406,211.795640625Z" fill="url(#master_svg3_78_05437)" fill-opacity="1"/></g><g><path d="M245.46063337402342,212.31590625C298.80633337402344,212.31590625,342.2643333740234,169.12390625,342.2643333740234,115.78470625C342.2643333740234,62.44560625,298.80633337402344,19.25390625,245.46063337402342,19.25390625C192.11473337402344,19.25390625,148.65733337402344,62.44560625,148.65733337402344,115.78470625C148.65733337402344,169.12390625,191.85453337402345,212.31590625,245.46063337402342,212.31590625Z" fill="url(#master_svg4_78_05441)" fill-opacity="1"/></g><g><path d="M209.65643058105468,140.555209375C213.75492058105468,140.555209375,217.2211205810547,137.068609375,217.2211205810547,132.983659375C217.2211205810547,128.872649375,213.75492058105468,125.412109375,209.65643058105468,125.412109375C205.5579005810547,125.412109375,202.0917205810547,128.872649375,202.0917205810547,132.983659375C202.0917205810547,137.068609375,205.5579005810547,140.555209375,209.65643058105468,140.555209375Z" fill="#989FB0" fill-opacity="1"/></g><g><path d="M267.6525548486328,140.555209375C271.75104484863283,140.555209375,275.2172448486328,137.068609375,275.2172448486328,132.983659375C275.2172448486328,128.872649375,271.75104484863283,125.412109375,267.6525548486328,125.412109375C263.5566248486328,125.412109375,260.0878448486328,128.872649375,260.0878448486328,132.983659375C260.0878448486328,137.406909375,263.5566248486328,140.555209375,267.6525548486328,140.555209375Z" fill="#989FB0" fill-opacity="1"/></g><g><path d="M209.35975407714844,107.95317077636719L192.72105407714844,116.92975077636719L194.96678407714845,121.09277077636719L211.60815407714844,112.11622077636719L209.35975407714844,107.95317077636719Z" fill="#989FB0" fill-opacity="1"/></g><g><path d="M266.62465150878904,107.849609375L264.37892150878906,111.986639375L281.02282150878904,120.989209375L283.26862150878907,116.826189375L266.62465150878904,107.849609375Z" fill="#989FB0" fill-opacity="1"/></g><g><path d="M238.6557794921875,158.196825C243.5297794921875,158.196825,247.4799794921875,155.230625,247.4799794921875,151.587995C247.4799794921875,147.919305,243.5297794921875,144.953125,238.6557794921875,144.953125C233.7817794921875,144.953125,229.8289794921875,147.919305,229.8289794921875,151.587995C229.8289794921875,155.230625,233.7817794921875,158.196825,238.6557794921875,158.196825Z" fill="#989FB0" fill-opacity="1"/></g><g><path d="M57.459257916259766,37.337890625C57.459257916259766,37.337890625,21.085157916259767,46.574660625,32.108247916259764,53.964090625C43.131357916259766,60.989190625,69.21875791625976,73.166190625,93.83595791625976,65.048190625C118.45315791625977,56.930290625,93.83595791625976,45.481860624999996,94.20285791625976,45.481860624999996C94.56975791625976,45.481860624999996,57.459257916259766,37.337890625,57.459257916259766,37.337890625Z" fill="#CED7E2" fill-opacity="1"/></g><g><path d="M13,34.3970875C26.229799999999997,38.4559875,67.0121,31.7951875,93.0995,14.8046875C113.678,40.3033875,121.394,46.9382875,128.74200000000002,47.6927875C117.352,59.1411875,79.5054,77.6147875,58.1957,53.5990875C33.209,69.4707875,13,34.3970875,13,34.3970875Z" fill="#E9EDF9" fill-opacity="1"/></g><g><path d="M351.4732971191406,126.73816875C365.43429711914064,127.49276875000001,403.27869711914065,110.50226875,423.85459711914064,87.60546875C450.31149711914065,107.17186875,459.1282971191406,111.59506875,466.8462971191406,110.50226875C458.3942971191406,124.52656875,432.6735971191406,155.17706875,396.2994971191406,157.41466875C369.8424971191406,141.88126875,351.4732971191406,126.73816875,351.4732971191406,126.73816875Z" fill="#E9EDF9" fill-opacity="1"/></g><g><path d="M240.01680627441408,300.00098437500003C237.25320627441405,286.314884375,211.36870627441405,253.895084375,184.06080627441406,239.662684375C196.43440627441407,209.16828437499998,198.53190627441407,199.541274375,195.53410627441406,192.333984375C211.23600627441405,197.017414375,247.33950627441408,214.294084375,258.54730627441404,248.97748437500002C250.10820627441404,278.457184375,240.01680627441408,300.00098437500003,240.01680627441408,300.00098437500003Z" fill="#FFFFFF" fill-opacity="1"/></g></g></g></svg>